<svg width="128" height="128" xmlns="http://www.w3.org/2000/svg">
    <defs>
        <linearGradient x1="52.546%" y1="100%" x2="52.546%" y2="0%" id="a">
            <stop stop-color="#1E3DA0" offset="0%"/>
            <stop stop-color="#3750DE" offset="100%"/>
        </linearGradient>
        <linearGradient x1="50%" y1="0%" x2="50%" y2="100%" id="b">
            <stop stop-color="#1D3BA3" stop-opacity="0" offset="0%"/>
            <stop stop-color="#173793" stop-opacity=".653" offset="100%"/>
        </linearGradient>
        <linearGradient x1="50%" y1="100%" x2="50%" y2="0%" id="c">
            <stop stop-color="#1E3DA0" offset="0%"/>
            <stop stop-color="#3750DE" offset="100%"/>
        </linearGradient>
    </defs>
    <g fill="none" fill-rule="evenodd">
        <path d="M35 0h58c19.33 0 35 15.67 35 35v58c0 19.33-15.67 35-35 35H35c-19.33 0-35-15.67-35-35V35C0 15.67 15.67 0 35 0Z" fill="url(#a)"/>
        <circle fill="#FFF" cx="64.571" cy="64.571" r="48.571"/>
        <path d="M64 0c35.346 0 64 28.654 64 64 0 35.346-28.654 64-64 64-35.346 0-64-28.654-64-64C0 28.654 28.654 0 64 0Zm-.287 15.21c-26.946 0-48.79 21.844-48.79 48.79 0 26.946 21.844 48.79 48.79 48.79 26.946 0 48.79-21.844 48.79-48.79 0-26.946-21.844-48.79-48.79-48.79Z" fill="url(#b)"/>
        <path d="M58.182 88.727a7.273 7.273 0 1 1-14.546 0v-4.364h-4.363a7.273 7.273 0 1 1 0-14.545h4.363V58.181h-4.363a7.273 7.273 0 1 1 0-14.545h4.363v-4.363a7.273 7.273 0 1 1 14.546 0l-.001 4.363h11.637v-4.363a7.273 7.273 0 1 1 14.546 0l-.001 4.363h4.364a7.273 7.273 0 1 1 0 14.546l-4.364-.001v11.637h4.364a7.273 7.273 0 1 1 0 14.546l-4.364-.001v4.364a7.273 7.273 0 1 1-14.545 0v-4.364H58.181v4.364Zm-.001-18.909h11.637V58.181H58.181v11.637Z" fill="url(#c)" transform="rotate(-30 64 64)"/>
    </g>
</svg>
