<svg width="41" height="44" xmlns="http://www.w3.org/2000/svg">
    <defs>
        <linearGradient x1="51.268%" y1="48.898%" x2="48.611%" y2="51.115%" id="a">
            <stop stop-color="#CF0BC3" offset="0%"/>
            <stop stop-color="#CF0BC3" offset="0%"/>
            <stop stop-color="#CF0BC3" offset="0%"/>
            <stop stop-color="#FF3568" offset="100%"/>
        </linearGradient>
    </defs>
    <g fill-rule="nonzero" fill="none">
        <path d="m2.96 25.032 1.072-1.073c.334-.333.49-.42.677-.476a.962.962 0 0 1 .565 0c.188.057.343.143.677.476l16.03 16.03c.334.335.42.49.477.677a.962.962 0 0 1 0 .566c-.057.187-.143.343-.477.677L20.91 42.98c-.334.334-.49.42-.677.477a.962.962 0 0 1-.566 0c-.187-.057-.342-.143-.676-.477L2.96 26.951c-.334-.334-.42-.49-.477-.677a.962.962 0 0 1 0-.565c.057-.188.143-.343.476-.677Z" fill="#4100EA"/>
        <path d="M1.712.778h1.517c.472 0 .643.05.815.142a.962.962 0 0 1 .4.4c.093.172.142.343.142.815v22.67c0 .472-.05.644-.142.816a.962.962 0 0 1-.4.4c-.172.092-.343.142-.815.142H1.712c-.472 0-.643-.05-.815-.142a.962.962 0 0 1-.4-.4c-.093-.172-.142-.344-.142-.815V2.136c0-.473.05-.644.141-.816a.962.962 0 0 1 .4-.4c.173-.093.344-.142.816-.142Z" fill="url(#a)" transform="rotate(-45 31.613 11.4)"/>
        <path d="m.79 12.062 7.646-7.646c5.062-5.062 10.842-4.667 15.365-.144.574.575 1.292 1.58 1.723 2.226.18.251.287.43.43.574.288.287.575.36 1.185.18 3.77-1.041 7.072.107 10.231 3.267 4.416 4.415 4.883 10.338-.718 15.939L25.92 37.19c-.575.575-1.041.539-1.616-.036L.826 13.678c-.575-.575-.61-1.041-.036-1.616Zm15.687 4.057 1.831-1.831c.934-.933 1.077-2.226-.036-3.339-1.077-1.077-2.405-.969-3.338-.036l-1.831 1.831c-.574.575-.538 1.041.036 1.616l1.723 1.723c.574.574 1.041.61 1.615.036Zm8.76 8.759 4.81-4.81c1.4-1.4 1.687-2.693.503-3.877-1.149-1.15-2.477-.898-3.877.502l-4.81 4.81c-.575.575-.54 1.042.035 1.616l1.723 1.723c.575.574 1.041.61 1.616.036Z" fill="#2926CF"/>
    </g>
</svg>
