<svg version="1.1" id="Layer_1" xmlns="http://www.w3.org/2000/svg" x="0" y="0" viewBox="0 0 612 792" style="enable-background:new 0 0 612 792" xml:space="preserve">
    <style>
        .st0{fill:#efb718;stroke:#000;stroke-miterlimit:10}
    </style>
    <path class="st0" d="M599.5 581.6c-3.9 12.9-7.7 25.7-11.2 37.1-39-26.8-77.3-53.2-115.7-79.6-34.5-23.7-69.1-47.3-103.6-71.1-13-8.9-21.7-8.4-33.1 2.9-38.2 38.1-76.3 76.2-114.4 114.4-18.1 18.2-18.3 36.3 0 54.7 41.8 42.1 83.8 83.9 125.8 125.7 3.4 3.4 8 5.7 12 8.5l-3.3 6.3c-21.6-4.7-44.1-6.9-64.6-14.4-93.9-34.7-165.9-94-204-189.2C77 551 74.2 523.7 75.9 495.6c3.7-64-17-118.1-67.6-161.1 7.7 2.1 15.6 3.6 23 6.3 39.2 13.9 68.9 37 83.3 78.4 5.8 16.6 17.4 31.9 29 45.5 4.7 5.5 17 8.3 24.7 6.8 11.3-2.3 17.7-13.4 15.8-24.7-2.3-13.8-5.4-28.6-12.7-40.1-19.8-31.7-40.8-62.7-63.4-92.4-48-63.3-58-131-29.1-205C86 92 91.1 73.8 94.8 55.6c3.6-17.7 4.4-36 6.5-55.3 2.1 2.7 4.8 4.9 5.9 7.7 12.6 30.3 29.5 59.7 36.3 91.3 12.4 57.1 46.3 92.8 97.2 115.4 37.8 16.7 76.4 31.9 114.3 48.5 13 5.7 25.3 13.1 37.4 20.5 24.1 14.5 41.4 34.8 51.5 61.2 6.2 16.2 12.5 32.4 19.1 48.4 3.1 7.4 6.7 14.6 11 21.3 5.7 8.9 12.6 16.7 25 13 12.6-3.8 18.3-13.6 17.1-25.5-1.6-16.2-4.4-32.6-9.2-48.2-4.9-16.1-12.6-31.3-20.8-50.8 8.1 6.6 14 10.5 18.9 15.5 37 37.3 59.4 83.2 75 132.4 7.9 24.9 11.5 51.1 17.1 76.7.4 2 1.5 3.9 2.3 5.9.1 15.9.1 32 .1 48z"/>
    <path class="st0" d="M455 787.7c-25.8-26.2-51.6-52.4-77.5-78.5-12.7-12.9-12.7-18 0-30.9 12.2-12.3 24.6-24.4 36.8-36.8 8.6-8.7 16.6-8.7 25.2 0 24.7 24.9 49.6 49.8 74.5 74.6 8.6 8.6 8.6 16.6-.1 25.3-15.4 15.3-30.4 30.9-45.5 46.4-4.4-.1-8.9-.1-13.4-.1zm7.5-37.7c2.1.1 4.3.2 6.4.3 4.2-5.7 11.8-11.4 11.7-16.9-.1-5.1-7.8-13.1-13.4-14.4-8.5-1.9-16.1 4.6-14.7 14.1.8 5.9 6.5 11.2 10 16.9zM559.3 675.2 430 545.9c3.1.6 6.8.3 9.2 1.9 41.3 27.9 82.4 56 123.4 84.3 15.1 10.4 11.9 36.8-3.3 43.1z"/>
    <path class="st0" d="M462.5 750c-3.5-5.6-9.2-11-10.1-17-1.3-9.4 6.2-16 14.7-14.1 5.6 1.3 13.3 9.2 13.4 14.4.1 5.6-7.5 11.3-11.7 16.9-2 0-4.1-.1-6.3-.2z"/>
</svg>
