<?xml version="1.0" encoding="utf-8"?>
<!-- Generator: Adobe Illustrator 26.0.3, SVG Export Plug-In . SVG Version: 6.00 Build 0)  -->
<svg version="1.1" id="Layer_1" xmlns="http://www.w3.org/2000/svg" xmlns:xlink="http://www.w3.org/1999/xlink" x="0px" y="0px"
	 viewBox="0 0 128 128" style="enable-background:new 0 0 128 128;" xml:space="preserve">
<style type="text/css">
	.st0{fill:#215BDB;}
	.st1{fill:#FFFFFF;}
</style>
<path class="st0" d="M63.9,126.8c-34.8,0-63-28.2-62.9-63C1,29,29.4,0.5,64.9,1c34.6,0.5,62.2,28.8,62.1,63.3
	C126.8,98.8,98.6,126.8,63.9,126.8z M27.2,63.9c0.1,20.4,16.3,36.4,36,36.8C84,101,100.6,84.4,100.7,64
	c0.1-20.2-16.4-36.8-36.5-36.8C43.7,27.1,27.2,43.5,27.2,63.9z"/>
<path class="st1" d="M27.2,63.9c0-20.4,16.5-36.7,37.1-36.7c20.1,0,36.5,16.7,36.5,36.8c-0.1,20.4-16.8,37-37.5,36.6
	C43.5,100.3,27.2,84.3,27.2,63.9z M63.9,75.7c3,0,6,0,9.1,0c1.8,0,2.7-0.9,2.8-2.7c0-6.1,0-12.2,0-18.2c0-1.7-1-2.6-2.7-2.6
	c-6,0-12.1,0-18.1,0c-1.8,0-2.8,0.9-2.8,2.7c0,6,0,12.1,0,18.1c0,1.9,1,2.7,2.8,2.8C57.9,75.7,60.9,75.7,63.9,75.7z"/>
<path class="st0" d="M63.9,75.7c-3,0-6,0-8.9,0c-1.9,0-2.8-0.9-2.8-2.8c0-6,0-12.1,0-18.1c0-1.8,1-2.7,2.8-2.7c6,0,12.1,0,18.1,0
	c1.7,0,2.7,1,2.7,2.6c0,6.1,0,12.2,0,18.2c0,1.8-1,2.7-2.8,2.7C70,75.7,66.9,75.7,63.9,75.7z"/>
</svg>
