<svg version="1.1" id="Layer_1" xmlns="http://www.w3.org/2000/svg" x="0" y="0" viewBox="0 0 215.7 215.1" style="enable-background:new 0 0 215.7 215.1" xml:space="preserve">
    <style>
        .st1{fill:#fdf0f9}.st2{fill:#fee6f4}.st3{fill:#fed10c}.st4{fill:#e66ba2}.st5{fill:#f981b2}.st6{fill:#f89dc1}.st7{fill:#fbbcd5}.st9{fill:#f85393}.st10{fill:#fb5f9e}.st12{fill:#7523d3}.st13{fill:#ae80e4}.st14{fill:#e4e4f4}
    </style>
    <path d="M108.5 30.3c6-2.1 12.3-1.5 18.3-.8 16.6 2.1 32.3 7.4 45.6 17.9 5.3 4.2 12.1 7.3 14.1 14.8-1.6 3-1.7 6 .3 8.8 4.8 6.8 8 14.4 10.7 22.2v2c-2 2.6-1.2 3.9 2 4 .6 2.1-1.7 4.5-.2 6.2 2.3 2.7 1.8 5.7 2.3 8.8.7 4.5 1.4 9.3 6.9 11 2 2.5 1.2 5.5.8 8.2-1.5 11.9-.4 23.9-.5 35.8-.1 12.8-5.8 23.2-16.1 30.9-7.7 5.8-16.3 8.2-26 8.2-33.1-.3-66.3-.1-99.4-.1-1.9 0-4 .8-5.7-1 2.4-1.3 2.4-2.8.7-4.8-.8-.9-2.9-1.1-2.1-2.9.7-1.6 2.6-1.1 4-1.3 2.6-.3 5.9 1.3 7.5-2.3 9.4 2 19.1 2.6 28.6 3.1 19.1 1 38.2-.1 57.3-1.1 3.7-.2 7.6-.5 10.9-2.7 4.4-.9 7.5-3.6 10.1-7 3.3-2.2 5.1-5.6 6.8-9 8.8-17.3 10.8-35.9 10.8-54.9.4-8.9-1.4-17.5-3.8-26.1-3.3-12.2-7.8-23.7-18-32-.7-1.3-1.6-2.4-2.7-3.4-10.7-9.5-23.4-13.8-37.4-15.3l-9.9-1.2c-.3-2.4-1.9-4-3.3-5.9-3.3-4.5-8.5-6.6-12.6-10.1z" style="fill:#fbf3f8"/>
    <path class="st1" d="M71.7 195.8c-1.6 3.6-4.8 2-7.5 2.3-1.5.2-3.3-.3-4 1.3-.8 1.8 1.3 2 2.1 2.9 1.7 2 1.6 3.5-.7 4.8-12.8-1.1-21.6-8.3-28.2-18.6-4.3-6.7-6.1-14.1-5.9-22.2.3-11.4.1-22.9.1-34.3 0-7.6-.4-15.2 1-22.8 3.8-1.1 5.6-4.4 8-7 3.3-3.5 5.8-7.9 10.6-9.9-.5 1.2-1.2 2.4-1.5 3.7-4.2 20.4-7.2 40.8-3 61.6 2.2 10.6 5.7 20.8 13.9 28.5 3.9 5.1 9.5 7.3 15.1 9.7z"/>
    <path class="st2" d="M47.2 92.4c-4.8 1.9-7.3 6.3-10.6 9.9-2.4 2.6-4.2 5.9-8 7 1.3-16.4 7.9-30.6 17.3-43.8 6.5-9 15-16.1 24.2-21.9 7.7-4.9 16.2-8.8 25.4-10.3.8 4.7-1 8.2-4.6 11.2-2 1.7-4.8 3.3-4.4 6.7-1 .6-2.1 1.3-3.1 1.9-5.5 1.2-10.3 4.1-14.4 7.5-3.4 2.8-8.1 4.7-9.5 9.6-1.4.7-2.1 1.9-3 3.1-4.2 5.9-6.6 12.5-9.3 19.1z"/>
    <path class="st3" d="M42.8 44.1c-.8-1.1-1.3-1.9-1.9-2.7-6.5-7.8-12.8-15.7-19.4-23.4-2-2.3-1.3-3.3.7-5 7.4-6.1 7.4-6.2 13.5 1.1 5.1 6.1 10.1 12.4 15.3 18.4 1.8 2.1 1.9 3.5-.4 5.2-2.6 1.8-4.9 3.9-7.8 6.4z"/>
    <path class="st1" d="M86.6 51.2c-.4-3.4 2.3-5 4.4-6.7 3.6-3 5.4-6.5 4.6-11.2 4.1-2.2 8.4-2.9 13-3 4.1 3.5 9.3 5.6 12.7 10.1 1.4 1.8 3 3.4 3.3 5.9-3.4.1-6.7.3-10.1.4-9.6.2-18.8 1.8-27.9 4.5z"/>
    <path class="st3" d="M27.5 65.2c-.6-.3-1.3-.6-2.1-1-6.3-3-12.5-6.2-18.8-9.1-2.2-1-2.9-2-1.8-4.5 4.1-9.4 4-9.4 13.2-4.9 4.6 2.3 9.2 4.5 13.9 6.8 1.4.7 2.7 1.4 1.6 3.3-1.4 2.6-2.7 5.4-4 8-.3.8-.8 1.5-2 1.4z"/>
    <path class="st2" d="M208.5 125.2c-5.4-1.7-6.1-6.5-6.9-11-.5-3 0-6.1-2.3-8.8-1.5-1.7.8-4.1.2-6.2-.7-1.3-1.3-2.7-2-4v-2c2.6.1 3.4-3.2 6-3 4.2 11.3 5.4 23 5 35z"/>
    <path class="st1" d="M203.5 90.2c-2.6-.2-3.4 3.1-6 3-2.7-7.8-6-15.4-10.7-22.2-2-2.8-1.8-5.8-.3-8.8 7.4 8.3 14 17.1 17 28z"/>
    <path class="st4" d="M71.7 195.8c-5.5-2.4-11.2-4.6-15-9.7 1.8-2.4.5-5.2.9-7.7.8-4.9 2.5-9.4 7-12.2 2.8 1.7 5.8 2 9 1 .3 6.2 6.5 8.4 10 10.2 9.2 4.9 19.9 6 30.6 5.1 7.9-.6 15.6-1.6 23.3-3.4.3 3.4-2 4.4-4.7 5.5-1.7.7-4.8.8-4.6 2.8.2 2.6 3.2 1.4 5 1.7.6.1 1.4.1 1.9.4 8.5 4.7 17.7 4.6 27 4.6 2.2 0 4.3-.2 6.3 1-3.3 2.1-7.2 2.5-10.9 2.7-19.1 1-38.2 2.1-57.3 1.1-9.5-.5-19.1-1.1-28.5-3.1z"/>
    <path class="st5" d="M168.5 195.1c-2-1.2-4.2-1-6.3-1-9.3 0-18.5.1-27-4.6-.5-.3-1.3-.3-1.9-.4-1.8-.3-4.8.9-5-1.7-.2-2 2.9-2.2 4.6-2.8 2.7-1.1 4.9-2.1 4.7-5.5 8.6-2.5 16.5-6.3 23.2-12.2 3.4-3 7-6 7.8-10.8 2.1-1.9 4.6-3.4 6.1-5.9 4.8-2.2 6.6-6.5 7.9-11.2 1-3.3 2-6.6 3.1-9.9 1.9 1.6 2 3.7 1.9 5.9-.5 11.3-4.5 21.5-10.4 31.1-4.2 6.7-10.7 11.1-15.4 17.2-.6.8-2.4 1.1-1.4 2.7.6.9 1.6 1.2 2.6 1.1 5.3-.6 10.5 1.2 15.8 1-2.8 3.4-5.9 6.1-10.3 7z"/>
    <path class="st6" d="M178.6 188.1c-5.3.1-10.5-1.6-15.8-1-1 .1-2.1-.1-2.6-1.1-1-1.6.8-1.9 1.4-2.7 4.8-6.1 11.3-10.5 15.4-17.2 6-9.6 9.9-19.7 10.4-31.1.1-2.2-.1-4.3-1.9-5.9 2.4-9.9.3-19.1-4.1-27.9 3.5-2.3 5.5-1 6.4 2.8.9 3.9 1.1 8 2.7 11.5 1.5 3 .6 8 5.7 8.7 0 19-2 37.6-10.8 54.9-1.6 3.4-3.5 6.8-6.8 9zM114.5 46.7c3.4-.1 6.7-.3 10.1-.4l9.9 1.2c.9 2.5 2.6 3.8 5.1 4.8 12.1 4.8 24.2 9.8 28.2 24.1.2.9 1.3 1.5 1.8 2.4 3.6 5.9 8.6 11 8.9 18.5-1.3-1.4-2.6-2.7-3.9-4.1.2-3.1-1.9-5.2-3.3-7.5-3.8-6-4.4-5.9-8.7.5-3.7-.6-7.3-1.3-11-1.9-1.4-2.3-2.7-4.7-4.1-7l2.8-2.8c4.1-4.5 4.1-6-1-9.3-9-5.8-18.1-11.3-28.5-14.4-2.2-.8-5.5-.8-6.3-4.1z"/>
    <path class="st7" d="M178.5 97.3c-.3-7.4-5.3-12.6-8.9-18.5-.5-.8-1.5-1.5-1.8-2.4-4-14.3-16.1-19.3-28.2-24.1-2.5-1-4.3-2.3-5.1-4.8 13.9 1.5 26.7 5.8 37.4 15.3 1.2 1 2 2.1 2.7 3.4-4.8 2-4.2 5.2-1.8 8.6 3.8 5.6 8.5 10.7 10.6 17.3 1.6 4.9 3.7 7.8 9.3 6.1 2.4 8.5 4.2 17.1 3.8 26.1-5.1-.8-4.3-5.7-5.7-8.7-1.7-3.5-1.9-7.7-2.7-11.5-.9-3.8-2.9-5-6.4-2.8-.7-1-1.3-1.9-2-2.9-.6-.4-.9-.8-1.2-1.1z"/>
    <path class="st2" d="M192.5 98.2c-5.6 1.8-7.7-1.1-9.3-6.1-2.1-6.5-6.7-11.7-10.6-17.3-2.3-3.4-3-6.7 1.8-8.6 10.3 8.3 14.8 19.8 18.1 32z"/>
    <path class="st1" d="M197.5 95.2c.7 1.3 1.3 2.7 2 4-3.2-.1-4-1.4-2-4z"/>
    <path d="M64.6 166.1c-4.5 2.8-6.2 7.3-7 12.2-.4 2.6.9 5.3-.9 7.7-8.2-7.7-11.8-17.9-13.9-28.5-4.2-20.7-1.2-41.2 3-61.6.3-1.3 1-2.4 1.5-3.7 2.7-6.5 5.1-13.2 9.4-19 .9-1.2 1.7-2.4 3-3.1v6.5c-.1 3.4.9 4.3 4 2.2 2.1-1.5 4.1-3.4 6.9-3.7 1.1 1.6.6 3-.2 4.5-1.3 2.6-2.1 5.4-1.8 8.4-1 .6-1.9 1.3-2.9 1.9-13.5 8-18.8 24.1-16.1 37.5 2.4 12.1 9.9 19.7 20.1 25.4.9 5.6-3.9 8.8-5.1 13.3z" style="fill:#d05392"/>
    <path class="st5" d="M114.5 46.7c.9 3.3 4.1 3.3 6.4 4 10.4 3.1 19.5 8.6 28.5 14.4 5 3.3 5.1 4.8 1 9.3-.9 1-1.8 1.9-2.8 2.8-2.3-2.5-5.8-3.1-8.4-5-15.5-11.2-32.4-16.4-51.5-13-.3-2.7-2.7-4.1-4.1-6.1 1-.6 2.1-1.3 3.1-1.9 9-2.7 18.2-4.3 27.8-4.5z"/>
    <path class="st4" d="M83.4 53.2c1.4 2 3.8 3.4 4.1 6.1-1.7 3.1-4.8 3.9-7.7 5.1-1.7.7-3.6 1-4.2 3.1-.8 3.2-3.1 5.4-5.1 7.8-2.8.2-4.8 2.2-6.9 3.7-3.1 2.1-4.1 1.2-4-2.2v-6.5c1.4-4.9 6.1-6.8 9.5-9.6 4-3.5 8.9-6.3 14.3-7.5z"/>
    <path class="st9" d="M64.6 166.1c1.2-4.6 6-7.8 5-13.2 13.3 4.8 25.7 3.8 37.1-5 4.8-3.7 7.8-8.8 11.1-14.3 3.6 7.5 8.1 13.7 15 17.4 13.5 7.3 26.8 6.3 39.6-2 .9.1 1.7.2 2.2 1.1-1.5 2.5-4 4-6.1 5.9-8.3 4.6-18.9 2.2-26.4 9-.2.2-.6.1-.9.3-14.6 6.1-30 5.8-45.4 5.8-4.3 0-7.6-1.2-10.7-4-4.5-4.2-6.4-4.1-11.5-.1-3.2 1.2-6.2.8-9-.9z"/>
    <path class="st10" d="M73.6 167.1c5.1-4 7-4.1 11.5.1 3.1 2.8 6.4 4 10.7 4 15.4-.1 30.8.3 45.4-5.8.3-.1.7-.1.9-.3 7.5-6.8 18.1-4.4 26.4-9-.8 4.9-4.4 7.9-7.8 10.8-6.7 5.9-14.6 9.7-23.2 12.2-7.7 1.7-15.5 2.7-23.3 3.4-10.7.9-21.4-.2-30.6-5.1-3.5-1.9-9.7-4.1-10-10.3z"/>
    <path d="M172.4 149.1c-12.8 8.2-26.1 9.3-39.6 2-6.8-3.7-11.4-9.9-15-17.4-3.3 5.5-6.3 10.6-11.1 14.3-11.5 8.9-23.9 9.8-37.1 5-10.2-5.7-17.7-13.4-20.1-25.4C46.8 114.1 52.1 98 65.6 90c1-.6 1.9-1.3 2.9-1.9 4.3-1.2 8.7-2.4 13-3.5 9.9 0 19 2.4 26.6 9.2 4 3.5 6.6 8.1 9.7 13 5-10.3 12.2-17.3 22.7-20.7 3.7-.6 7.4-1.2 11-1.8 3.7.6 7.3 1.3 11 1.9 4 2.3 8.5 3.8 12 7 1.3 1.4 2.6 2.7 3.9 4.1v-.1l1.1 1.1c.7 1 1.3 1.9 2 2.9 4.4 8.9 6.5 18.1 4.1 27.9-1 3.3-2 6.6-3.1 9.9-4.1 2.7-6.2 7.3-10.1 10.1zm-5.9-13c8.4-11.4 9.5-20.9 3.1-29.6-1.4 3.2-4.4 4.5-7.2 5.8-10.9-.8-14-5.4-11.1-16.7-10.6-1.2-19.3 5.2-23.9 17.4-.9.2-1.4.6-1.8 1.5-3 8.6 0 19.9 6.7 25.4 8.6 7 20 8.4 28.5 2.8 2.4-1.4 6.1-2.4 5.7-6.6zm-65 0c1-1.3 1.9-2.7 2.9-4 4.4-5.8 6.4-18.1.3-25.4-2 2.4-4.3 4.5-7.2 5.8-11.3-1.1-14.3-5.6-11.2-17.2-11.5.1-19 5.8-23.6 15.9-1 .6-1 1.6-.7 2.5-.1.8-.3 1.6-.4 2.4-1.4.2-1.7 1.1-1.9 2.4-1.7 13.3 6.9 25 20.2 27.4 8.4 1.7 18.9-3.1 21.6-9.8z" style="fill:#fdfbfd"/>
    <path class="st10" d="M172.4 149.1c3.9-2.8 6-7.5 10.1-10-1.3 4.7-3.1 9-7.9 11.2-.5-.9-1.3-1.1-2.2-1.2zM81.6 84.6c-4.3 1.2-8.7 2.4-13 3.5-.2-3 .6-5.8 1.8-8.4.7-1.5 1.3-2.9.2-4.5 2-2.4 4.3-4.6 5.1-7.8.5-2.1 2.5-2.5 4.2-3.1 2.9-1.1 6-2 7.7-5.1 19.1-3.4 36.1 1.8 51.5 13 2.7 1.9 6.1 2.5 8.4 5 1.4 2.3 2.7 4.7 4.1 7-3.7.6-7.4 1.2-11 1.8-.2-3.1-3-3.9-4.9-5.1-7.3-4.7-13.7-10.7-22.6-12.9-8.7-2.1-16.7.9-25 1.7-2.1.2-4.2 1.7-4.3 4.2-.2 3.7-1.8 7.1-2.2 10.7z"/>
    <path class="st7" d="M174.5 93.2c-3.5-3.2-8-4.7-12-7 4.2-6.4 4.9-6.4 8.7-.5 1.5 2.3 3.6 4.4 3.3 7.5z"/>
    <path class="st6" d="m179.5 98.3-1.1-1.1c.4.4.7.8 1.1 1.1z"/>
    <path class="st9" d="M81.6 84.6c.4-3.6 2-6.9 2.1-10.7.1-2.5 2.2-4 4.3-4.2 8.3-.8 16.3-3.8 25-1.7 8.9 2.2 15.3 8.2 22.6 12.9 1.9 1.2 4.7 2.1 4.9 5.1-10.4 3.4-17.7 10.4-22.7 20.7-3.1-4.9-5.7-9.4-9.7-13-7.5-6.7-16.6-9.1-26.5-9.1z"/>
    <path class="st12" d="M62.6 111.2c4.5-10.2 12-15.9 23.6-15.9-3.1 11.6 0 16.1 11.2 17.2.1 1 .2 2 .4 2.9 1.5 6.5-1.4 13.3-7.6 15.2-4.8 1.4-6.3 3.9-5.6 8.4.1.9-.1 2-.2 2.9-14.5-1.4-21.7-9.5-22.9-25.8.1-.8.3-1.6.4-2.4.7-.7.7-1.6.7-2.5zM127.3 113.2c4.6-12.3 13.3-18.6 23.9-17.4-2.9 11.3.2 15.9 11.1 16.7 2.5 10.9.8 14.3-9.7 19.1-1.5.7-2.3 1.6-2.3 3.3.1 2.3-.1 4.6-.1 6.9-3.4.4-6.6-.5-9.6-1.9-11.1-5.5-14.6-14.9-13.3-26.7z"/>
    <path class="st13" d="M84.4 141.9c.1-1 .3-2 .2-2.9-.7-4.5.7-7 5.6-8.4 6.2-1.9 9.1-8.6 7.6-15.2-.2-1-.3-2-.4-2.9 2.9-1.3 5.2-3.4 7.2-5.8 6.2 7.3 4.1 19.6-.3 25.4-1 1.3-1.9 2.7-2.9 4-5.3 2.8-10.3 6.7-17 5.8zM150.3 141.8c0-2.3.2-4.6.1-6.9 0-1.7.7-2.6 2.3-3.3 10.5-4.9 12.2-8.3 9.7-19.1 2.8-1.4 5.7-2.6 7.2-5.8 6.4 8.7 5.3 18.2-3.1 29.6-5 2.9-10 5.9-16.2 5.5z"/>
    <path class="st14" d="M150.3 141.8c6.2.4 11.2-2.6 16.2-5.6.4 4.2-3.3 5.2-5.7 6.7-8.5 5.5-19.9 4.2-28.5-2.8-6.7-5.4-9.6-16.8-6.7-25.4.3-.9.9-1.3 1.8-1.5-1.3 11.8 2.1 21.3 13.4 26.7 2.9 1.4 6.1 2.3 9.5 1.9zM84.4 141.9c6.7.9 11.7-3.1 17.1-5.9-2.7 6.7-13.2 11.5-21.8 10-13.3-2.4-21.9-14.1-20.2-27.4.2-1.3.5-2.2 1.9-2.4 1.3 16.2 8.5 24.3 23 25.7zM62.6 111.2c.1.9 0 1.8-.7 2.5-.3-1-.3-1.9.7-2.5z"/>
</svg>
