<svg version="1.1" id="Layer_1" xmlns="http://www.w3.org/2000/svg" x="0" y="0" viewBox="0 0 618 683" style="enable-background:new 0 0 618 683" xml:space="preserve">
    <style>
        .st1{fill:#6e6e6e}.st2{fill:#a6a6a6}.st3{fill:#606060}.st4{fill:#868686}
    </style>
    <path d="M300.3 23.7c.2 21 .4 42 .5 63 .1 17.7-.1 35.3.1 53 0 4.4-1.3 7.1-5.2 9.4-51.3 29.4-102.4 59-153.8 88.3-4.8 2.7-6.3 5.6-6.3 10.9.2 58.1 0 116.3.3 174.4 0 6.7-1.7 10.5-7.9 14-33.5 18.8-66.6 38.1-99.9 57.3-.9.5-1.9.7-2.9 1.1-.1-1-.2-2.1-.2-3.1 0-99.5 0-199-.1-298.5 0-9.5 5.4-15.4 12.8-19.8 22.7-13.2 45.5-26.1 68.2-39.2 21.4-12.3 42.6-24.9 64-37.2C200 80 230.1 62.6 260.4 45.7c13.3-7.3 25.6-16.5 39.9-22z" style="fill:#adadad"/>
    <path class="st1" d="M585.4 515.5c-27.8 16.2-55.5 32.4-83.3 48.4-60 34.6-120 69-179.9 103.7-9.4 5.4-17.3 5.6-26.8.2-84.1-48.7-168.4-97.1-252.6-145.6-1.3-.8-2.5-1.8-3.8-2.7 8.4-7.5 19-11.2 28.5-16.8 10.4-6.2 20.4-13.1 31-18.9 14.7-8 29.9-15.2 43.5-25 3.7-2.6 7.1-2.9 11.4-.6 11.5 6.2 23 12.6 34.2 19.3 15.8 9.6 33 17 48.4 27.2 21 14 44.1 24.3 65.1 38.2 6.6 4.4 13.9 6 21.8 1.5 7.8-4.5 15.3-9.4 23.2-13.7 19.2-10.5 37.2-22.9 56.6-32.9 24.1-12.4 46.2-28.1 70.6-39.8 3.5-1.7 5.7-2 9.2-.6 9.4 3.8 17.5 9.8 26.1 14.7 12.3 7 25.1 13.2 37.1 20.6 13.1 8.3 25.9 16.4 39.7 22.8z"/>
    <path class="st2" d="M597.6 178.8c1.9 1.9 1.3 4.4 1.3 6.7v307.6c0 1.3-.2 2.5-.4 5-12.7-7.3-24.8-14.2-36.9-21.1-23.8-13.7-47.7-27.4-71.5-41.2-1.6-.9-4.2-1.2-3.8-4.1.1-36.3.1-72.6.1-108.9 0-3.4.4-7.1-4.6-7.3.8-5.5-2.1-8.1-6.6-10.7-31.3-17.7-62.4-35.7-93.5-53.6-1.1-.6-1.9-1.6-2.9-2.5.1-5 4.6-6.1 7.7-7.9 30-17.3 60-34.6 90.3-51.4 9-5 13-11.7 12.8-21.8-.3-13.8-.1-27.5-.1-41.3 0-8.2 1.1-8.8 8.4-4.6 11.2 6.4 22.3 13.1 33.5 19.5 22.1 12.6 44.2 25.1 66.2 37.6z"/>
    <path class="st1" d="M364.3 254.6c.1 38.9.2 77.8.4 116.8 0 3-.9 4.8-3.5 6.2-34.7 19.7-69.3 39.5-104 59.3 0-37.6.1-75.2 0-112.7 0-5.5.9-10.2 6.2-13.2 22.4-12.7 44.5-25.8 67.1-38 11.3-6.1 21.4-14.4 33.8-18.4z"/>
    <path class="st3" d="M585.4 515.5c-13.8-6.4-26.6-14.5-39.5-22.6-12-7.5-24.8-13.6-37.1-20.6-8.7-5-16.8-10.9-26.1-14.7-3.5-1.4-5.8-1.1-9.2.6-24.4 11.7-46.5 27.5-70.6 39.8-19.4 10-37.5 22.4-56.6 32.9-7.9 4.3-15.4 9.2-23.2 13.7-7.9 4.5-15.2 2.9-21.8-1.5-21-14-44.1-24.2-65.1-38.2-15.4-10.2-32.6-17.6-48.4-27.2-11.2-6.8-22.7-13.1-34.2-19.3-4.3-2.3-7.8-2-11.4.6-13.7 9.8-28.8 17.1-43.5 25-10.6 5.7-20.6 12.7-31 18.9-9.5 5.6-20.1 9.3-28.5 16.8-3.6-1.9-7.2-3.7-12.1-6.3 16.4-9.5 31.6-18.2 46.7-27C95.3 474 117 461.8 138.4 449c4.7-2.8 8-2.5 12.6.2 50.7 29.4 101.6 58.5 152.3 87.8 4.1 2.4 6.9 2.4 11.1 0 51.1-29.7 102.4-59 153.6-88.7 4.3-2.5 7.5-2.7 11.9-.1 36.7 21.4 73.6 42.6 110.5 63.8-1.1 2.5-3.1 2.9-5 3.5z"/>
    <path class="st4" d="M300.3 23.7c-14.3 5.6-26.6 14.7-39.8 22.1-30.3 16.9-60.4 34.3-90.5 51.6-21.4 12.3-42.6 24.9-64 37.2-22.7 13.1-45.6 26-68.2 39.2C30.4 178.1 25 184 25 193.6V492c0 1 .2 2.1.2 3.1-1.9 1.2-3.8 2.3-5.8 3.5-1.7-2.4-1-4.8-1-7 0-101.6 0-203.2-.2-304.8 0-9.4 3.5-15.5 11.6-20.1C118 116.1 206.2 65.3 294.4 14.6c1.7-1 3.2-2.7 5.8-2.3 1.1 3.8.4 7.6.1 11.4z"/>
    <path class="st2" d="M366.4 44.2c.1 19.7.1 39.3.2 59 0 3.1-.6 5.5-3.5 7.1-12.9 7.1-25.2 15.3-38.6 21.5-.1-33.7-.1-67.5-.3-101.2 0-5.9 2.2-7.7 7.5-4.5 5.6 3.3 10.9 7.2 16.8 9.7 6.2 2.4 10.4 9 17.9 8.4z"/>
    <path class="st4" d="M597.6 178.8c-22-12.5-44.1-25-66.1-37.5-11.2-6.4-22.3-13.1-33.5-19.5-7.3-4.2-8.4-3.5-8.4 4.6-.1 13.8-.2 27.5.1 41.3.2 10.1-3.8 16.8-12.8 21.8-30.3 16.8-60.3 34.1-90.3 51.4-3.1 1.8-7.6 2.9-7.7 7.9-4.3-1.7-8.5-3.7-12.6-6.9 1.6-2.7 4.4-3.6 6.7-4.9 34.3-19.8 68.6-39.7 103.1-59.2 4.6-2.6 5.8-5.4 5.8-10.4-.3-20-.1-39.9-.1-60.4 8.8 2.4 15 8.4 22.3 12.5 28 15.5 55.6 31.8 83.3 47.9 4.4 2.5 9.4 5.2 10.2 11.4z"/>
    <path class="st3" d="M364.3 254.6c-12.4 4-22.5 12.3-33.7 18.4-22.6 12.2-44.8 25.4-67.1 38-5.3 3-6.2 7.7-6.2 13.2.1 37.6 0 75.2 0 112.7-1.7 1.1-3.3 2.2-5 3.3-2.6-2.1-1.5-4.6-1.5-6.7-.1-39.9-.1-79.8-.1-119.8 0-3.3-.6-6.4 3.4-8.6 36.2-20.5 72.4-41.2 108.5-61.9.6.1 1.2.3 1.8.4 0 3.8-.1 7.4-.1 11z"/>
    <path class="st4" d="M366.4 44.2c-7.5.6-11.7-5.9-17.8-8.4-5.9-2.4-11.2-6.4-16.8-9.7-5.4-3.2-7.6-1.4-7.5 4.5l.3 101.2c-1.9 1.8-4 3.2-7.2 4.2V11.4c11.6 6.8 22.8 13.4 33.9 20 4.1 2.4 8.1 5.2 12.4 7.3 2.6 1.3 3.3 2.9 2.7 5.5zM481.9 315.5c5 .3 4.6 4 4.6 7.3 0 36.3-.1 72.6-.1 108.9-5.1.9-4.6-2.8-4.6-5.8 0-36.8.1-73.6.1-110.4z"/>
    <path class="st1" d="M364.4 243.8c-.6-.1-1.2-.3-1.8-.4.8-.7 1.6-1.6 1.8.4z"/>
</svg>
