<svg viewBox="0 0 64 64" xmlns="http://www.w3.org/2000/svg">
    <linearGradient id="a" gradientTransform="matrix(23.9866 0 0 -16.946 6597.135 5695.49)" gradientUnits="userSpaceOnUse" x1="-272.527" x2="-275.121" y1="335.553" y2="332.96">
        <stop offset="0" stop-color="#11c4d1"/>
        <stop offset="1" stop-color="#0062ad"/>
    </linearGradient>
    <path d="M63.8 10.9C65.9 39.5 47.6 53 31.1 54.5 15.8 55.8 1.4 46.4.1 32c-1-11.9 6.3-17 12.1-17.5 6-.5 11 3.6 11.4 8.6.4 4.8-2.6 7-4.6 7.2-1.6.1-3.7-.9-3.9-3-.2-1.8.5-2.1.4-4-.3-3.5-3.3-3.9-5-3.7-2 .2-5.7 2.5-5.1 8.4.5 5.9 6.2 10.6 13.6 9.9 8-.7 13.6-6.9 14-15.7 0-.5.1-.9.3-1.3.1-.2.2-.4.3-.5.2-.3.4-.5.7-.8.2-.2.5-.5.7-.8 3.5-3.3 16.1-11.1 28-8.6.4-.2.8.2.8.7" fill="url(#a)"/>
</svg>
