<svg xmlns="http://www.w3.org/2000/svg" viewBox="0 0 616.6 286.9" style="enable-background:new 0 0 616.6 286.9" xml:space="preserve">
    <path d="M164.8 63.8c19.2-.6 36 6.2 51.2 17.2 14.3 10.3 27.9 21.7 42.5 31.7 37.4 25.5 66.2 24.4 102.5-3 14.1-10.6 27.9-21.8 42.7-31.4C440.4 54.6 483 60.7 511.9 93c25.7 28.6 25.1 72.8-1.3 104.2-25.3 30.1-68.8 36.2-105.1 13.7-13.3-8.2-25.3-18.5-37.7-28.2-46.4-36.2-74.9-36.2-121.2.1-12.4 9.7-24.2 20.2-37.6 28.3-52.6 31.7-112.6 4.8-123.5-54.7-9-47.9 29.8-93 79.3-92.6z"/>
</svg>
