<svg version="1.1" id="Layer_1" xmlns="http://www.w3.org/2000/svg" x="0" y="0" viewBox="0 0 422 425.2" style="enable-background:new 0 0 422 425.2" xml:space="preserve">
    <style>
        .st1{fill:#1f252a}
    </style>
    <path d="M14.3 269v-21c2.1-.1 3.8.9 5.5 2 20.4 12.2 41.4 23.2 63 33 19.7 8.8 39.5 17.4 58.8 27.2 1.2.6 2.3 2 4.4.8-1.2-1.1-2.2-2.2-3.4-3-10.8-7.1-20.7-15.5-30.9-23.5-2.7-2.1-6.7-3.4-7.5-7.6 3.2-2.1 5.6-4.7 5-8.8-.5-3.2-2.4-5.4-5.4-6.4-4.3-1.5-7.8.6-10.6 6.3-2 .1-3.9-.3-5.6-1.6-9.5-7.1-19-14.2-29.5-19.8-13.9-7.4-28.6-12.7-43.9-16.6V96.1c2.2-1.2 1.5-3.5 1.7-5.2 5.3-42.5 33.5-70.7 76-76 1.8-.2 4 .4 5.3-1.7h7c1.3 1.3 2.7-.1 4 0h211.9c1.3-.1 2.7 1.3 4 0h6c1.9 2.1 4.5 1.4 6.8 1.7 41.8 5.2 70.4 33.9 75.5 75.9.3 2.1-.6 4.7 1.7 6.3v83c-5.1 1.1-7.4-4.7-12.2-4.6-3.4.1-6.3-2.2-9.7-2.6-1.4-.2-3.7-1.7-3.9-2.8-.6-4.5-3.8-5.8-7.3-7.2-2.7-1.2-5.6-2.5-7.7-4.5-4.7-4.3-11-.2-16-3.5-.6-.4-3.2.1-4.5-1.6-3-3.9-6.5-4.2-9.6-.6-3 3.5-7.1 2.4-10.7 3.1-3.4.7-7.2-.9-10.5-1.7-2.7-.7-6.1-4.2-6.1-8.9 0-3.1-1.9-4.9-5.5-3.1-3 1.5-5.9 1.7-8.4-1.4-1.9-2.3-5.1-2.7-7.1-.5-2.3 2.5.1 4.8 2.2 6.1 16.1 10.5 32.3 20.9 48.4 31.4 15.4 10.1 30.7 20.3 46.3 30.3 7.4 4.7 13.9 10.8 22.3 14v52c-7.5 3.9-15.4-1.8-23 .6-1 .3-1.6-1.7-2.5-2.2-2.2-1.2-4.6-4.4-7 .1-1.1 2.1-3.5 1.6-5.5 1.4-6.7-.9-11.9-5.4-18-7.7-3.4-1.3-5-7-10.3-4.1-.3.1-1.1-.6-1.6-1-.8-.6-1.5-2.5-2.6-1-1.1 1.4.5 2.3 1.6 3.1 6.4 4.7 13 9.2 19.2 14.2 16.6 13.5 35.4 24.4 49.7 40.7v4c-1.3.3-1.7 1.2-2 2.4-.9 3.9-1.2 7.8-.9 11.8-.1.9-.1 1.8-.2 2.7-2.6 1-5.5-1-8.1.5-.1.1-.9-.9-1.3-1.4-4-4.6-8.2-9-13.1-12.6-2.8-2.1-6.4-2.1-9.5-3.9-1.4-.8-3.7 1.7-5.3 3.1-2 1.7-3.8 1.1-5.3-.5-1.9-2-3.4-3.9-6.7-2-1.8 1-9.7-4.1-10.7-6.3.1-.1.1-.2.2-.3-.1.1-.1.2-.2.3-7-1.5-10.5-8.1-16.6-11-5.2-2.6-8-8.1-12.6-11.4-2.3-1.6-4.8-4.8-6.5-4.8-4.8-.1-8.8-1-13-3.5-4.5-2.7-9.5-4.7-14.6-6.5-6.6-2.3-12.8-5.9-19.3-8.9-11.7-5.3-23.7-9.9-35.5-15-10.7-4.6-20.9-10.1-31.9-14-.1-.1-.2-.1-.3-.2.1.1.2.1.3.2.1 2.3 2 2.9 3.4 3.9 6.7 4.7 13.4 9.3 20 14 22.5 16 44.9 32 67.4 48 15.3 10.8 30.6 21.7 46.1 32.3 3.3 2.2 2.6 5.1 2.4 7.8-.3 2.9-3.2 1.8-5 2.5-4.3 1.5-3.2-3-5.4-3.6-4.2 5.3-9.8 3.4-14.5 1.7-6.4-2.2-9.8-1.8-14.2 3.7-3.3 4.3-8.8 5.5-12.3 2.3-2-1.8-4.2-2.3-6.5-3.2-3.1-1.2-4.2-.2-3.7 2.7.3 2 .1 3.6-2.1 3.6-3.3 0-7.6 2.2-9.3-3.8-.5 3.2-2.6 3.6-4.7 3.6-3.8 0-7.6.1-10.8-2.4-1.6-1.2-2.7-1.6-3.9.7-1.1 2.2-5.1 2-6.7-.1-.3-.4.5-1.3-1.4-1.3-6.2-.1-12.6-1-18.1-4.2-5.6-3.3-12.6-3.2-17.8-7.2-2.4-1.9-5.8 1.2-8-1.1-5.6-6-13.6-8.1-20.3-12.3-5.5-3.4-6.1-2.8-7.6 3.3-1 4-4.3 5.1-7.9 3.1-1.8-1-3.2-2.9-5.5-3.1-8.8-.6-16.3-5.6-24.7-7.6-4.9-1.1-9.4-3.6-14.5-4.6-8.3-1.5-16.1-4.4-23.5-8.8-5.3-3.2-11.2-5.3-16.8-7.9 2.8 4.3 7.9 5.8 10.3 10.4-5.5 2.2-8.7-1.2-12.2-4-.9-.8-1.3-2.8-3-1.9-3.2 1.6-5.8-.4-8.6-1.2-7.4-2-14.3-5.7-22-7.1-8.7-1.6-16.7-5.8-25.5-6.4v-16c10.2 1.9 19.3 7.4 29.4 10-9.3-5.2-17.6-11.7-26.5-17.3-.6-.1-1.7-.1-2.7-.3zm280.9-43c-.9-.8-1.6-1.7-2.6-2.3-3.7-2.4-6.4-5.1-4.5-10.1.5-1.5.8-3.8-1.7-4.6-.6-1.2-1.1-2.4-1.7-3.6-3.3-6.1-9.9-9.4-16.7-8.2-6.6 1.1-12.2 6.9-13 13.3-.9 7.3 2.5 13.7 9 16.7 6.9 3.2 12.9 1.3 18.4-3.2 4.6.4 8.1 2.5 10.9 6.2-1.2 1.1-2.5 2.1-3.6 3.4-3.3 3.9-3.6 9.7-.8 14 2.9 4.3 8.2 6.4 13.1 5 5.2-1.5 8.9-6.2 8.9-11.4 0-7.4-5.6-12-14.6-12-.4-1.1-.7-2.1-1.1-3.2.1-.1.1-.2.2-.3-.1.1-.1.2-.2.3zm-181.7-43c-.1.1-.4.2-.3.3 0 .3.2.5.3.8v2c-3.2-1.3-3.7-5.1-7.1-6.6-7.4-3.3-12.9-9.5-20.2-13.1-5.7-2.9-10.8-7.1-16.7-9.9-8.4-4-17.4-6.8-24.5-13.1-1.3-1.1-2-.2-3 .5-5.2 4.2-4.3 13.3 1.7 16.4 14.3 7.2 28.4 14.8 42.9 21.3 9.8 4.4 18.7 11 29.7 12.5.8.8 1.7 1.6 2.5 2.4 4.8 4.4 11.8 5.5 17.6 2.6 5.9-2.9 9.3-8.7 8.9-15.4-.3-6.4-4.6-11.9-10.9-14-9.3-3.2-17.4 2-20.9 13.3zm114.1 7.9c.7 1.1 1.4 2.2 2.2 3.3 4.3 5.7 11.7 7.9 18.3 5.4 6.6-2.5 10.8-9 10.2-16.1-.5-6.6-4-11.3-10.2-13.6-7.3-2.7-13.3-.4-18.4 5.1-.6-.2-1.7-.3-1.8-.7-1.8-7.9-9.6-9.5-15-13.2-4.1-2.8-8.9-5.5-13.3-8.1-6-3.5-13-3-18.7-6.6-.3-.2-1 .1-1.3.3-4.5 2.8-4.6 13.6-.4 16.8 2 1.5 5.2 1.7 5.5 5.1-1.4.4-2.9.7-4.3 1.2-8.2 3-12.4 11.8-9.8 19.8 2.8 8.3 11.7 12.9 20 10.2 9.2-2.9 12.8-11.7 9.4-22.8 2.1-.2 3.7.6 5.5 1.6 7.6 4.1 14.4 9 22.1 12.3zM140 247.4c.4-1.4 1-2.8 1.3-4.2 1-5.5-1.8-10.7-6.8-13-4.8-2.2-10.4-.9-13.9 3.2-2 2.2-2.5 5-3.1 7.7-14.4-5.2-28.8-10.4-43.8-15.8.9 2.5 2.6 3.1 3.9 3.9 5.3 3.4 10.7 6.7 15.9 10.2 16.8 11.3 33.8 22.4 50.9 33.3 22.7 14.5 46 27.9 69.5 41.1 20.3 11.4 40.7 22.6 59.8 35.9.8.6 1.8 2.8 3.1.9.9-1.2-.7-1.9-1.6-2.6-14.3-10.6-26.9-23.2-40.3-34.9-10.8-9.5-21.5-19.1-32.8-28-17.1-13.4-35.2-24.8-55.6-32.5-2.7-1.1-5.8-1.7-6.5-5.2zm143.1-62.6c0 8.8 7.3 16 15.9 15.8 8.7-.1 15.9-7.4 15.9-16-.1-8.7-7.3-15.8-16.1-15.8-8.8.1-15.8 7.1-15.7 16zm-12.3-12.5c8.8 0 15.8-7.1 15.8-15.9-.1-8.8-7.2-15.8-16-15.8s-15.8 7.1-15.7 16c.1 8.9 7 15.8 15.9 15.7zM158.4 197c-8.8-.3-16.1 6.4-16.5 15.2-.4 8.7 6.5 16.2 15.2 16.6 8.7.4 16.2-6.5 16.5-15.3.2-8.9-6.4-16.2-15.2-16.5zm-.5-24.6c8.9-.1 15.7-7 15.6-16-.1-8.8-7.2-15.8-16-15.7-8.8.1-15.9 7.3-15.7 16 .2 8.9 7.2 15.7 16.1 15.7zm96.5 69c.2-6.7-5.2-12.2-11.8-12.3-6.4-.1-11.9 5.2-12.1 11.6-.2 6.3 5 12 11.4 12.3 6.7.3 12.3-4.9 12.5-11.6zM186.2 253c6.4-.1 11.7-5.6 11.7-11.9-.1-6.7-5.6-12.1-12.2-11.9-6.4.1-11.6 5.5-11.6 12-.1 6.6 5.4 11.9 12.1 11.8zm129-40.1c0 6.4 5.3 11.8 11.7 11.9 6.5.1 12.2-5.5 12.2-12 0-6.4-5.3-11.8-11.7-11.9-6.8 0-12.3 5.3-12.2 12zm-113 0c0 6.6 5.5 12 12.1 11.9 6.5-.1 11.9-5.7 11.8-12.3-.1-6.3-5.5-11.6-11.9-11.6-6.6 0-12 5.4-12 12zM101.3 201c-6.6 0-12.1 5.6-11.9 12.1.1 6.3 5.5 11.7 11.8 11.8 6.5.1 12.1-5.4 12.1-11.9.1-6.7-5.3-12-12-12zm-28.1 48c4.3 0 8-3.6 8-7.9 0-4.3-3.6-8-7.9-8-4.3-.1-8 3.5-8 7.9-.1 4.3 3.5 8 7.9 8zm148.9 20.4c.1-4.3-3.5-8-7.8-8.2-4.3-.1-8 3.4-8.1 7.7-.1 4.4 3.3 8 7.7 8.1 4.4.2 8.1-3.3 8.2-7.6zm105-8.1c-4.3 0-8 3.6-8 7.9-.1 4.4 3.5 7.9 7.8 8 4.3.1 8-3.5 8.1-7.8.1-4.3-3.6-8.1-7.9-8.1zm36.1-20.4c-.1-4.3-3.7-7.9-8-7.8-4.3.1-7.9 3.8-7.8 8 .1 4.3 3.7 7.9 8.1 7.8 4.1 0 7.7-3.7 7.7-8zM335 345.4c-.1-.1-.2-.2-.2-.4-.1.2-.3.4-.4.6 0 .1.1.2.2.4.1-.2.3-.4.4-.6z" style="fill:#262d33"/>
    <path class="st1" d="M14.3 293c8.9.6 16.9 4.8 25.5 6.4 7.6 1.4 14.5 5.1 22 7.1 2.7.7 5.4 2.8 8.6 1.2 1.7-.9 2.1 1.1 3 1.9 3.5 2.8 6.7 6.2 12.2 4-2.4-4.6-7.5-6.1-10.3-10.4 5.6 2.6 11.5 4.7 16.8 7.9 7.3 4.4 15.2 7.3 23.5 8.8 5.1.9 9.6 3.4 14.5 4.6 8.5 1.9 15.9 6.9 24.7 7.6 2.4.2 3.7 2.1 5.5 3.1 3.6 2 6.9 1 7.9-3.1 1.6-6.1 2.2-6.7 7.6-3.3 6.7 4.2 14.6 6.3 20.3 12.3 2.2 2.3 5.5-.8 8 1.1 5.3 4 12.2 3.9 17.8 7.2 5.5 3.2 11.9 4.1 18.1 4.2 1.8 0 1 .8 1.4 1.3 1.6 2.1 5.6 2.3 6.7.1 1.2-2.3 2.3-1.9 3.9-.7 3.2 2.5 7.1 2.4 10.8 2.4 2.1 0 4.2-.5 4.7-3.6 1.6 5.9 5.9 3.8 9.3 3.8 2.2 0 2.4-1.6 2.1-3.6-.5-3 .6-3.9 3.7-2.7 2.3.9 4.5 1.5 6.5 3.2 3.5 3.1 9 1.9 12.3-2.3 4.4-5.6 7.7-5.9 14.2-3.7 4.8 1.6 10.3 3.6 14.5-1.7 2.2.6 1.1 5.1 5.4 3.6 1.9-.7 4.8.4 5-2.5.2-2.6.9-5.5-2.4-7.8-15.5-10.6-30.8-21.4-46.1-32.3-22.5-15.9-44.9-32-67.4-48-6.6-4.7-13.3-9.3-20-14-1.5-1-3.4-1.7-3.4-3.9 11 3.9 21.2 9.4 31.9 14 11.8 5.1 23.8 9.6 35.5 15 6.4 2.9 12.6 6.6 19.3 8.9 5.1 1.8 10.1 3.7 14.6 6.5 4.2 2.5 8.2 3.4 13 3.5 1.7 0 4.2 3.2 6.5 4.8 4.6 3.2 7.4 8.8 12.6 11.4 6 3 9.6 9.5 16.6 11 1 2.2 8.9 7.3 10.7 6.3 3.3-1.9 4.8 0 6.7 2 1.5 1.6 3.3 2.2 5.3.5 1.6-1.4 3.9-3.9 5.3-3.1 3 1.8 6.7 1.8 9.5 3.9 4.9 3.6 9.1 8 13.1 12.6.4.5 1.2 1.5 1.3 1.4 2.6-1.6 5.5.5 8.1-.5 1 2.5.1 4.9-.4 7.3-8.3 35.6-35.9 60.3-72.1 64.8-3.1.4-6.5-.2-9.3 1.9H108.5c-1-1.2-2-1.3-3 0h-8c-1.3-2.1-3.5-1.4-5.3-1.6-42.6-5.5-70.6-33.4-76-76-.2-1.8.5-4-1.6-5.3v-7c1.5-1.3 1.4-2.7 0-4-.3-9.2-.3-17.8-.3-26.5zM414.2 222c-8.4-3.1-14.9-9.2-22.3-14-15.5-9.9-30.8-20.2-46.3-30.3-16.1-10.5-32.3-20.9-48.4-31.4-2.1-1.4-4.4-3.6-2.2-6.1 2-2.2 5.1-1.9 7.1.5 2.6 3.1 5.4 2.9 8.4 1.4 3.6-1.8 5.5 0 5.5 3.1 0 4.7 3.4 8.2 6.1 8.9 3.2.8 7.1 2.4 10.5 1.7 3.6-.7 7.7.4 10.7-3.1 3.1-3.6 6.7-3.3 9.6.6 1.3 1.7 3.9 1.2 4.5 1.6 5 3.3 11.3-.8 16 3.5 2.1 2 5 3.3 7.7 4.5 3.5 1.5 6.7 2.7 7.3 7.2.2 1.1 2.4 2.7 3.9 2.8 3.4.4 6.3 2.6 9.7 2.6 4.8-.1 7.2 5.7 12.2 4.6V222z"/>
    <path class="st1" d="M104.3 276.9c.8 4.2 4.7 5.5 7.5 7.6 10.2 7.9 20.1 16.3 30.9 23.5 1.2.8 2.2 1.9 3.4 3-2 1.1-3.2-.2-4.4-.8-19.3-9.8-39.1-18.3-58.8-27.2-21.7-9.7-42.6-20.8-63-33-1.7-1-3.4-2.1-5.5-2v-18c15.2 3.9 30 9.1 43.9 16.6 10.5 5.6 20 12.7 29.5 19.8 1.7 1.3 3.5 1.7 5.6 1.6.9 7.4 3.3 9.3 10.9 8.9zM414.2 318c-14.3-16.4-33.1-27.2-49.7-40.7-6.2-5-12.8-9.5-19.2-14.2-1.1-.8-2.7-1.7-1.6-3.1 1.1-1.5 1.8.4 2.6 1 .5.4 1.3 1.2 1.6 1 5.3-2.9 6.9 2.9 10.3 4.1 6.1 2.3 11.4 6.8 18 7.7 1.9.3 4.3.7 5.5-1.4 2.4-4.5 4.7-1.3 7-.1.9.5 1.4 2.5 2.5 2.2 7.6-2.4 15.5 3.2 23-.6V318zM14.3 269c1 .2 2.1.1 2.9.6 8.9 5.6 17.2 12.2 26.5 17.3-10.1-2.5-19.1-8.1-29.4-10V269zM140 247.4c.7 3.5 3.8 4.1 6.3 5 20.4 7.6 38.5 19.1 55.6 32.5 11.4 8.9 22 18.5 32.8 28 13.4 11.7 25.9 24.4 40.3 34.9.9.7 2.5 1.4 1.6 2.6-1.3 1.9-2.3-.3-3.1-.9-19.1-13.3-39.5-24.5-59.8-35.9-23.5-13.2-46.8-26.6-69.5-41.1-17.1-10.9-34-22-50.9-33.3-5.2-3.5-10.6-6.8-15.9-10.2-1.3-.9-3-1.5-3.9-3.9 15 5.4 29.4 10.6 43.8 15.8.9 5.6 3.4 10 9.2 11.6 5.7 1.6 9.9-1 13.5-5.1zM116.4 194c-11-1.5-19.9-8.1-29.7-12.5-14.6-6.5-28.7-14.1-43-21.3-6-3-6.9-12.2-1.7-16.4.9-.8 1.7-1.7 3-.5 7.1 6.3 16.1 9.2 24.5 13.1 5.9 2.8 10.9 7 16.7 9.9 7.2 3.7 12.8 9.9 20.2 13.1 3.3 1.5 3.9 5.3 7.1 6.6.9 2.7 1.9 5.4 2.9 8zM184.8 168.6c-.3-3.4-3.5-3.6-5.5-5.1-4.2-3.2-4.1-14 .4-16.8.4-.2 1.1-.5 1.3-.3 5.7 3.6 12.6 3.1 18.7 6.6 4.4 2.6 9.2 5.3 13.3 8.1 5.3 3.7 13.1 5.3 15 13.2.1.3 1.1.5 1.8.7-3.3 5-3.7 10.3-2.1 15.9-7.7-3.3-14.5-8.3-21.9-12.3-1.8-1-3.5-1.8-5.5-1.6-3.8-5.3-8.8-8.3-15.5-8.4zM296.3 229.2c-1 .3-2 .7-3 1-2.7-3.6-6.3-5.8-10.9-6.2 3.4-4.4 4.9-9.4 4-15 2.5.8 2.2 3.1 1.7 4.6-1.9 5.1.8 7.7 4.5 10.1 1 .6 1.7 1.5 2.6 2.3.4 1.1.7 2.1 1.1 3.2z"/>
</svg>
