<svg version="1.1" id="Layer_1" xmlns="http://www.w3.org/2000/svg" x="0" y="0" viewBox="0 0 612 792" style="enable-background:new 0 0 612 792" xml:space="preserve">
    <style>
        .st0{fill:#0b0c0c}
    </style>
    <path class="st0" d="M497 433.9c57.4 31.5 93.8 77.2 103.1 141.1 13.2 90.2-37.2 149.9-128.8 155.1-17.4 1-34.8 1.5-51.1-5.8-6.8-3.1-10.8.9-15.7 3.7-64.4 36.1-128.7 36.1-193-.1-5.7-3.2-10.3-4.6-17.5-3-54.1 11.9-106 7-146.4-34.3C8 650.2 5.5 599.5 21.8 548c16-50.8 48.3-88.8 97.3-113.7-31.1-37.8-44.2-81.9-45.5-129.9-.2-8-3.2-9.9-10.9-11.5-33.1-6.8-52.2-32-49.4-63 3.7-41.5 24-63.6 60.6-64.2 8.6-.1 11.9-3.1 14.8-10.2C119.1 82.3 176.2 46 253.5 39.9c50.2-3.9 100.8-5.9 150.2 6.9 58.1 15 99 50.8 122.4 105.9 3.9 9.1 7.3 13 18.1 13.1 34.9.5 54.9 24.1 58.5 66.4 2.4 28.9-15.9 54.3-46.2 59.9-12.1 2.2-14.4 7.1-14.7 17.6-1.5 45.7-15 87.4-44.8 124.2zm-75.6 142.2c13.6-6.6 27.4-13.6 43-11 12.9 2.1 14.4-3.4 13.3-14.1-11.3-103.7-108.3-172.6-210.1-149-69.1 16-123.9 80-129.4 150.7-.7 9 .1 14.4 11.5 12.5 16.2-2.7 30.6 3.9 44.8 10.7 10.2 10.2 19.7 20.6 24.3 34.8 4.8 14.6 10.6 28.9 16 43.4 1.3 17.7-1 34.7-12.1 49.2-5.2 6.8-2.3 10.2 3.6 13.2 54.7 27.6 109.4 27.5 164.1-.5 8.2-4.2 6.7-7.8 2.2-14.3-12.4-17.7-14.2-37.3-7.3-57.7 4.4-13 8.8-26.1 13.2-39.1 6.5-10.5 13.9-20.3 22.9-28.8zM308.2 54.8c-19.1.9-38.3.8-57.2 2.8-66.4 7-116.8 37.5-144.5 100.5-3.6 8.2-4.5 13 4.1 20 36.1 29.8 30.1 86.6-10.7 110-4.4 2.5-9.4 3.6-9.2 10.7 1.8 55.9 17.4 105.7 61.8 143.4 7 5.9 10.9 5.5 16.9-1.1 7.7-8.5 21.8-14.8 23.9-24 2.2-10-13.9-15.8-20.5-24.9-27-36.8-29.2-78.8-23.5-121.2 7-51.8 35.9-87.1 87.8-99.9 40.4-10 81.7-6.6 122.6-3.7 19.3 1.3 36.9 8.2 53.8 17.7 71 39.8 66.7 163.3 29 208-7 8.3-22.3 14.8-20.2 23.6 2.2 9.3 16.3 15.3 23.8 24 6.6 7.7 11 6.9 18.2.8 43.6-37.5 59-86.8 60.9-142.1.2-6.8-3.7-8.9-8.7-10.9-36.2-14.3-49.5-86.7-10.8-111.4 7.5-4.8 8-8.8 4.7-16.8-16-38.6-42.3-66.9-79.9-85.2-38.9-19-80.5-19.5-122.3-20.3zm142.6 247.5c0-4 .1-8.1 0-12.1-2-60.6-33.6-97-93.6-105.4-31.6-4.4-63.6-2.9-95.3-.7-21 1.5-40.8 8.1-57.9 21-52.7 40-54.1 148.8-2.9 191.1 8 6.6 14.2 7.6 24.3 2.8 54.9-26.4 110.6-26.3 165.4.1 10.2 4.9 16.5 3.6 24.2-3.1 28.7-24.9 36.6-57.6 35.8-93.7zM119.6 708.8c-12.5-21.7-18.9-41.4-24.9-61.2-7.5-24.8-2.4-47.2 16.8-64.9 6.7-6.2 8.8-12.1 8.9-20.8.5-29.9 8.6-57.9 22.3-84.6 2.7-5.2 12.6-9.9 2.6-18.8-9-8-16.1-10.8-27.2-4.2-45.4 26.8-73.9 65.9-84.6 117.1-7.6 36.5-2.9 71.6 21.2 101.7 15.8 19.6 36.6 30.6 64.9 35.7zm376.2-.5c27.9-3.7 49.5-15 65.2-35.4 30.5-39.6 30-83.8 13.4-128.1-15.2-40.7-42.1-72.3-81.6-92.6-11-5.6-15.4 2-22.3 6.6-9 6.1-2 10.8.6 15.6 15.4 27.8 23.9 57.4 24.3 89.1.1 7.4 1.7 12.6 7.8 17.7 17.1 14.5 24.6 33.9 20.4 55.8-4.5 24.3-12.7 47.7-27.8 71.3zm-301.7-106c-17.7-20.4-39-25.3-59.8-14.8-18.8 9.5-29.3 29.8-23.9 50.9 4.3 16.7 10.3 33.2 17.7 48.7 9.7 20.3 34.4 29.5 56.4 23.1 19-5.5 33.2-24.9 32.9-44.3-.1-9.1-2.3-13.4-12.2-8.6-5.1 2.5-11 3.6-16.4 5.6-7.1 2.7-15.7 7-19.2-3-3.1-9 6-10.8 12.6-13.1 5.5-1.9 10.8-4.1 16.3-5.8 6.5-2 11.6-3.7 8.4-12.9-3.1-8.9-7.5-9.9-15.3-6.7-8 3.3-16.3 5.9-24.5 8.5-5.3 1.7-10.8 1.7-12.8-4.9-1.9-6.1 1.7-9.8 7.2-11.8 10.3-3.3 20.6-6.8 32.6-10.9zm227.7-.1c12.3 4.2 23.3 7.7 34 11.7 5.2 2 8.7 5.8 6.1 12.2-2.3 5.5-7.1 5.7-11.6 4.3-8.8-2.6-17.5-5.7-26.1-8.9-6.8-2.6-11.4-2.7-14.4 5.7-2.8 7.9-.7 11.6 7 13.8 7.2 2 14.2 4.8 21.2 7.2 5.9 2.1 11.1 5.3 8.5 12.4-2.7 7.3-9.1 5.8-14.8 4.1-6.6-2-13.4-3.9-19.5-6.9-12.5-6.3-13.7.8-13.3 10.4.9 20.5 16.4 38.5 36.7 42.6 22.8 4.6 43.6-4.8 53.3-25.5 5.8-12.5 10.1-25.7 14.5-38.8 8.2-24.4 1.3-45.7-18.3-57.4-20.9-12.4-43.3-8.3-63.3 13.1zM585 236.4c.3-32.3-15.6-52.7-41.4-53.3-24.6-.6-43.1 16-43.7 39.1-.9 33 15.5 54 42.4 54 25 .1 42.5-16.2 42.7-39.8zM73.7 276.3c25.8-.1 42-19.7 42.2-50.9.1-24.5-18-42.2-43-42.2-25.6 0-41.9 19.8-42.1 51-.2 24.6 17.7 42.1 42.9 42.1z"/>
    <path d="M398.5 604.8c-4.4 13.1-8.8 26.1-13.2 39.1-7 20.4-5.1 40 7.3 57.7 4.5 6.5 6.1 10.1-2.2 14.3-54.7 28.1-109.4 28.2-164.1.4-5.9-3-8.8-6.3-3.6-13.2 11.1-14.5 13.4-31.5 12.1-49.2 23.3 17.5 49.1 27.2 78.8 25.9 35.5-1.6 36.7-3.9 19.7-34.4-6.9-12.5-13.7-19.2-30-19.3-30.1-.1-56.1-26.4-54.1-56.2 1.4-20.6-6.6-28.8-23.7-33.6-4.9-1.4-9.6-3.8-14.3-6.1-6.8-3.3-10-1.8-11.9 6-3.1 13-4.3 26.1-4.9 39.4-14.2-6.7-28.6-13.4-44.8-10.7-11.4 1.9-12.2-3.4-11.5-12.5 5.4-70.7 60.2-134.7 129.4-150.7 101.9-23.6 198.9 45.3 210.1 149 1.2 10.7-.3 16.3-13.3 14.1-15.6-2.6-29.4 4.5-43 11-.1-4.6 0-9.3-.3-13.9-4-66.9-66-118.1-129.1-106.9-31.5 5.6-31.5 5.6-15.4 33.2 1.5 2.5 3.1 4.9 4.3 7.5 4.3 10.1 10.5 13.8 22.7 12.4 25.4-2.9 50 12.9 60.3 35.3 4.8 10.4 4.7 16-9.3 15.4-18.6-.7-37.3-.2-56-.2-.2 1.6-.4 3.2-.6 4.9 33.6 14.1 67.1 27.7 100.6 41.3z" style="fill:#09a5b2"/>
    <path class="st0" d="M210.7 271c18.1-.3 33.5 14.7 33.6 32.7.1 17.4-14.1 32-31.7 32.6-18.9.7-33.5-13-33.9-31.6-.5-18.7 13.5-33.4 32-33.7zM371.5 302.8c.7-18.1 16.4-32.5 34.5-31.7 18.4.8 31.9 15.9 31 34.7-.9 18.5-15.9 31.7-34.9 30.5-17.4-1.1-31.2-16.2-30.6-33.5zM307.3 339.1c-21.7-.2-40-15.7-42.4-35.6-.7-6-1.4-12 6.4-13.6 6.7-1.4 9.3 3 10.3 8.7 2.6 14.5 11.3 22.7 25.9 22.8 14.5.1 23.7-7.6 26.4-22.2 1.2-6.4 4-11.3 11.5-9 6.5 1.9 5.9 7.4 5.4 12.8-1.8 20.3-21 36.3-43.5 36.1z"/>
</svg>
