<svg version="1.1" id="Layer_1" xmlns="http://www.w3.org/2000/svg" x="0" y="0" viewBox="0 0 140.8 142.3" style="enable-background:new 0 0 140.8 142.3" xml:space="preserve">
    <style>
        .st1{fill:#5b2a91}
    </style>
    <path d="M78.5 21c10.1-5.4 12.7-4.9 21.3 3.6 2 2 3.5 5.3 7.5 3 1.6-.9 2.9 1 4 2.2 3.9 3.8 7.8 7.6 11.5 11.6 2.2 2.3 6.1 3.9 3.3 8.5-.8 1.3 1.5 2.7 2.7 3.8 10.4 9.3 13.8 15.3-.3 28.4C116 93.6 104.2 106 92 118c-5.6-4.4-10.8-9.1-14.7-15-1.6-2.4-2.5-2.5-4.4-.5-4.2 4.3-8.5 8.4-12.8 12.5-1.4 1.3-3.1 2.7-4.6.7-4.4-6.1-10.4-10.6-15.3-16.2-2-2.3-2-4.3.4-6.5 3.5-3.2 6.6-6.7 9.9-10 1.2-1.2 2.6-2.9 1.5-4.3-3.4-4.2-7.3-9.4-11.3-11.4-6.1-3.1-2.4-5.3-.8-6.9 3.7-3.7 7-7.7 10.7-11.4 9.3-9.3 18.6-18.7 27.9-28zM96 73.2c2.9.1 6.4-.5 6.6-3.2.2-3.3-3.5-2-5.6-2.2-7.7-.6-11.1-6.1-8.3-13.6.8-2 1.4-4-.7-5.3-2.4-1.5-3.5.7-4.8 2.2-3.3 4.1-3.4 8.5-1 13.1 3 5.5 7.5 8.7 13.8 9z" style="fill:#843ad9"/>
    <path class="st1" d="M78.5 21c-9.3 9.4-18.6 18.7-27.8 28.2-3.6 3.7-7 7.7-10.7 11.4-1.6 1.6-5.3 3.8.8 6.9 4 2 7.9 7.2 11.3 11.4 1.1 1.4-.3 3-1.5 4.3-3.3 3.3-6.4 6.9-9.9 10-2.4 2.2-2.5 4.2-.4 6.5 4.9 5.6 10.9 10.1 15.3 16.2 1.5 2 3.3.6 4.6-.7 4.3-4.2 8.6-8.3 12.8-12.5 1.9-1.9 2.8-1.9 4.4.5 4 5.9 9.2 10.6 14.7 15-6.1 6.7-11.9 13.8-22.2 14.2-6.9.3-12.9-1.8-17.8-6.7-15.4-15.4-30.7-30.6-46-45.9-6.2-6.2-6.1-12.8.1-19 15.5-15.5 31.1-31 46.7-46.5 6.5-6.3 12.5-6.3 19 .1l6.6 6.6z"/>
    <path class="st1" d="M96 73.2c-6.4-.3-10.8-3.4-13.7-9.1-2.4-4.6-2.3-9 1-13.1 1.2-1.5 2.4-3.7 4.8-2.2 2.1 1.3 1.4 3.3.7 5.3-2.9 7.5.5 13 8.3 13.6 2.1.2 5.8-1.1 5.6 2.2-.2 2.8-3.8 3.4-6.7 3.3z"/>
</svg>
