<svg version="1.1" id="Layer_1" xmlns="http://www.w3.org/2000/svg" x="0" y="0" viewBox="0 0 246 246" style="enable-background:new 0 0 246 246" xml:space="preserve">
    <style>
        .st0{fill:#00a14a}.st1{fill:#4a7d3b}
    </style>
    <path class="st0" d="M102.1 15.2v1c14.7 13 22.7 27.1 23.3 39.6 0 11.3-6.2 22.7-18.7 32.9V58c0-2.3-1.7-4.5-4.5-4.5V15.2z"/>
    <path class="st1" d="M102.1 53.5c-2.3 0-4.5 1.7-4.5 4.5v30.6C85.1 77.9 78.9 67.1 78.9 55.8c.6-12.5 8.5-26.5 23.3-39.6v37.3zM183.3 126.1c-.6-1.1-1.7-1.7-2.8-1.7-1.1-.6-2.3 0-3.4.6l-4 2.3c5.3-14.7 18.2-10.2 23.3-9.1l-13.1 7.9z"/>
    <path class="st0" d="M196.3 118.2c-1.7 5.1-4.4 18.7-18.7 15.9l4-2.3c1.1-.6 1.7-1.1 2.3-2.8.6-1.1 0-2.3-.6-2.8l13-8z"/>
    <path d="m177.6 134.1 4-2.3c1.1-.6 1.7-1.1 2.3-2.8.6-2.3-1.1-4.5-2.8-5.1-1.1-.6-2.3 0-3.4.6l-4 2.3c4.5-13 17.6-9.6 22.7-8.5-1.8 5.6-4.6 18-18.8 15.8zm-28.9 18.1c-3.4 0-6.2-2.8-6.2-6.2s2.8-6.2 6.2-6.2 6.2 2.8 6.2 6.2c.6 3.4-2.3 6.2-6.2 6.2zm6.8 46.5c0 3.4-2.8 6.2-6.2 6.2s-6.2-2.8-6.2-6.2 2.8-6.2 6.2-6.2c2.8 0 6.2 2.8 6.2 6.2zm-39.2-23.2c0-1.1.6-1.7.6-2.8 0-1.1 0-2.3-.6-2.8l22.7-13c1.7 1.1 3.4 2.3 5.7 3.4v26.1c-1.7.6-3.4 1.7-5.1 2.8l-23.3-13.7zm18.2 26.1-23.3 13c-1.7-1.1-3.4-2.3-5.1-2.8v-26.1c1.7-.6 4-1.7 5.1-2.8l23.3 13c0 1.1-.6 2.3-.6 3.4.6.6.6 1.7.6 2.3zm-32.4 30c-3.4 0-6.2-2.8-6.2-6.2s2.8-6.2 6.2-6.2c3.4 0 6.2 2.8 6.2 6.2s-2.8 6.2-6.2 6.2zm-32.3-30v-2.8c0-1.1 0-2.3-.6-3.4l23.3-13c1.7 1.1 3.4 2.3 5.1 2.8v26.1c-1.7.6-4 1.7-5.1 2.8l-22.7-12.5zm-5.1-13.1c-1.7-1.1-3.4-2.3-5.1-2.8v-26.1c2.3-.6 4-1.7 5.1-3.4l22.7 13c0 1.1-.6 1.7-.6 2.8 0 1.1 0 2.3.6 2.8l-22.7 13.7zm-9.1 17c-3.4 0-6.2-2.8-6.2-6.2s2.8-6.2 6.2-6.2 6.2 2.8 6.2 6.2-2.8 6.2-6.2 6.2zM49.4 146c0-3.4 2.8-6.2 6.2-6.2s6.2 2.8 6.2 6.2-2.8 6.2-6.2 6.2-6.2-2.8-6.2-6.2zm43.1-16.5c1.7 1.1 3.4 2.3 5.1 2.8v26.1c-2.3.6-4 1.7-5.1 2.8l-22.7-13v-2.8c0-1.1 0-2.3-.6-3.4l23.3-12.5zm9.6-16.4c3.4 0 6.2 2.8 6.2 6.2s-2.8 6.2-6.2 6.2c-3.4 0-6.2-2.8-6.2-6.2s2.8-6.2 6.2-6.2zM78.9 55.2c.6-12.5 8.5-25.5 23.3-38.6 14.7 13 22.7 26.1 23.3 38.6 0 11.3-6.2 22.7-18.7 32.9V58c0-2.3-1.7-4.5-4.5-4.5-2.3 0-4.5 1.7-4.5 4.5v30.6C85.1 77.9 78.9 67.1 78.9 55.2zm29.5 116.9c0 3.4-2.8 6.2-6.2 6.2-3.4 0-6.2-2.8-6.2-6.2s2.8-6.2 6.2-6.2c3.3-.1 6.2 2.8 6.2 6.2zm26.6-29c0 1.1-.6 2.3-.6 3.4v2.8l-22.7 13c-1.7-1.1-3.4-2.3-5.1-2.8v-26.1c1.7-.6 3.4-1.7 5.1-2.8l23.3 12.5zm67.5-31.7s-15.9-6.2-26.7 0c-6.2 3.4-10.8 10.2-11.9 21l-5.7 3.4c-2.3-2.3-5.7-3.4-9.6-3.4-3.4 0-6.8 1.1-9.6 3.4l-23.3-13c0-1.1.6-2.3.6-3.4 0-6.2-4-11.3-10.2-13.6v-6.2l2.3-1.7C126 84.1 134.5 70 133.9 54.6c0-15.3-9.6-31.2-28.9-47.7-.6-.6-1.7-1.1-2.3-1.1h-.6c-1.1 0-1.7.6-2.3 1.1C80 24 70.4 39.9 70.4 55.2c-.6 14.8 7.9 29.5 25.5 43.1l2.3 1.7v6.2C92.5 108 88 113.6 88 119.9c0 1.1 0 2.3.6 3.4l-23.3 12.5c-2.3-2.3-5.7-3.4-9.6-3.4-7.9 0-14.2 6.2-14.2 14.2 0 6.2 4 11.3 10.2 13.6v26.1c-5.7 1.7-10.2 7.4-10.2 13.6 0 7.9 6.2 14.2 14.2 14.2 4 0 7.4-1.7 9.6-4l22.7 13c0 1.1-.6 2.3-.6 2.8 0 7.9 6.2 14.2 14.2 14.2s14.2-6.2 14.2-14.2c0-1.1 0-2.3-.6-2.8l22.7-13c2.8 2.3 6.2 4 9.6 4 7.9 0 14.2-6.2 14.2-14.2 0-6.2-4-11.3-10.2-13.6v-26.1c5.7-1.7 10.2-7.4 10.2-13.6 0-1.1 0-2.3-.6-3.4l5.1-2.8c10.8 4.5 19.3 4 25 0 10.2-6.2 13-23.3 13-23.3 1.8-2.3 0-5.2-1.7-5.7z" style="fill:#424243"/>
</svg>
