<?xml version="1.0" encoding="utf-8"?>
<!-- Generator: Adobe Illustrator 26.0.3, SVG Export Plug-In . SVG Version: 6.00 Build 0)  -->
<svg version="1.1" id="Layer_1" xmlns="http://www.w3.org/2000/svg" xmlns:xlink="http://www.w3.org/1999/xlink" x="0px" y="0px"
	 viewBox="0 0 364 396" style="enable-background:new 0 0 364 396;" xml:space="preserve">
<style type="text/css">
	.st0{fill:#2363F1;}
	.st1{fill:#5582F6;}
</style>
<path class="st0" d="M351.6,215.8c-8.8,66.4-43.6,114.4-105.2,140c-61.6,25.6-121,17.2-173.6-24.1C21.9,291.6,1,237.3,9,173.4
	c4.7-37.4,20.1-70.2,48.3-97.9c21.6-21.1,45.3-36,73.3-45.1c11-3.6,22-6.7,34.3-4.3c7.5,1.4,15.8-2.3,23.8-2.3
	c69.8-0.2,143.5,58.6,158.3,126.8c4.4,20,9,40.3,5.1,61.1C351.9,213.1,351.8,214.5,351.6,215.8z"/>
<path class="st1" d="M333.6,353.8c0.2-1.4,0.4-2.7,0.6-4.1C334,351.1,333.8,352.5,333.6,353.8z"/>
</svg>
