<svg height="512" width="512" xmlns="http://www.w3.org/2000/svg">
    <radialGradient id="a" cx="1.813%" cy="50%" r="98.187%">
        <stop offset="0" stop-color="#424242"/>
        <stop offset="1"/>
    </radialGradient>
    <g fill="none" fill-rule="evenodd">
        <path d="M256 0c141.385 0 256 114.615 256 256S397.385 512 256 512 0 397.385 0 256 114.615 0 256 0z" fill="url(#a)"/>
        <path d="m137.902 242.762-15.82 55.957h-16.7L83 214.168h18.398l13.184 59.59h.938l15.41-59.59h14.941l15.703 59.59h.938l13.066-59.59h18.281l-22.441 84.55h-16.582l-15.996-55.956zm127.325 40.84v15.117H209.21v-84.551h56.016v15.117h-38.32v19.746h36.152v14.004h-36.153v20.567zm56.601 15.117H283.86v-84.551h36.973c16.406 0 26.191 8.027 26.191 21.094 0 8.965-6.62 16.758-15.293 18.047v1.054c11.192.82 19.336 9.258 19.336 20.157 0 14.824-11.191 24.199-29.238 24.199zm-20.273-71.016v21.504h13.3c9.551 0 14.766-3.926 14.766-10.723 0-6.738-4.863-10.78-13.3-10.78zm0 57.48h15.761c10.196 0 15.704-4.277 15.704-12.187 0-7.734-5.684-11.836-16.114-11.836h-15.351zm84.433-23.144v-13.184h10.313c8.027 0 13.476-4.687 13.476-11.601 0-6.797-5.273-11.133-13.535-11.133-8.203 0-13.652 4.629-14.12 11.953h-16.349c.586-15.996 12.48-26.074 30.938-26.074 17.344 0 29.824 9.492 29.824 22.793 0 9.785-6.152 17.402-15.586 19.336v1.055c11.602 1.289 18.867 9.023 18.867 20.156 0 14.824-13.945 25.547-33.222 25.547-18.867 0-31.64-10.43-32.403-26.367h16.934c.527 7.148 6.563 11.66 15.645 11.66 8.847 0 15-4.98 15-12.188 0-7.383-5.801-11.953-15.293-11.953z" fill="#fff"/>
    </g>
</svg>
